<?xml version="1.0" encoding="utf-8" standalone="no"?>
<!DOCTYPE svg PUBLIC "-//W3C//DTD SVG 1.1//EN"
  "http://www.w3.org/Graphics/SVG/1.1/DTD/svg11.dtd">
<svg xmlns:xlink="http://www.w3.org/1999/xlink" width="460.8pt" height="345.6pt" viewBox="0 0 460.8 345.6" xmlns="http://www.w3.org/2000/svg" version="1.1">
 <metadata>
  <rdf:RDF xmlns:dc="http://purl.org/dc/elements/1.1/" xmlns:cc="http://creativecommons.org/ns#" xmlns:rdf="http://www.w3.org/1999/02/22-rdf-syntax-ns#">
   <cc:Work>
    <dc:type rdf:resource="http://purl.org/dc/dcmitype/StillImage"/>
    <dc:date>2022-03-31T11:01:06.334679</dc:date>
    <dc:format>image/svg+xml</dc:format>
    <dc:creator>
     <cc:Agent>
      <dc:title>Matplotlib v3.5.1, https://matplotlib.org/</dc:title>
     </cc:Agent>
    </dc:creator>
   </cc:Work>
  </rdf:RDF>
 </metadata>
 <defs>
  <style type="text/css">*{stroke-linejoin: round; stroke-linecap: butt}</style>
 </defs>
 <g id="figure_1">
  <g id="patch_1">
   <path d="M 0 345.6 
L 460.8 345.6 
L 460.8 0 
L 0 0 
z
" style="fill: #ffffff"/>
  </g>
  <g id="axes_1">
   <g id="patch_2">
    <path d="M 57.6 307.584 
L 414.72 307.584 
L 414.72 41.472 
L 57.6 41.472 
z
" style="fill: #ffffff"/>
   </g>
   <g id="patch_3">
    <path d="M 57.6 307.584 
L 57.6 307.584 
L 61.1712 307.584 
L 61.1712 307.584 
L 64.7424 307.584 
L 64.7424 307.584 
L 68.3136 307.584 
L 68.3136 307.584 
L 71.8848 307.584 
L 71.8848 307.584 
L 75.456 307.584 
L 75.456 307.584 
L 79.0272 307.584 
L 79.0272 307.584 
L 82.5984 307.584 
L 82.5984 307.584 
L 86.1696 307.584 
L 86.1696 307.584 
L 89.7408 307.584 
L 89.7408 307.584 
L 93.312 307.584 
L 93.312 307.584 
L 96.8832 307.584 
L 96.8832 307.584 
L 100.4544 307.584 
L 100.4544 307.584 
L 104.0256 307.584 
L 104.0256 307.584 
L 107.5968 307.584 
L 107.5968 307.584 
L 111.168 307.584 
L 111.168 306.987671 
L 114.7392 306.987671 
L 114.7392 305.795012 
L 118.3104 305.795012 
L 118.3104 306.987671 
L 121.8816 306.987671 
L 121.8816 305.795012 
L 125.4528 305.795012 
L 125.4528 302.813365 
L 129.024 302.813365 
L 129.024 305.198682 
L 132.5952 305.198682 
L 132.5952 304.602353 
L 136.1664 304.602353 
L 136.1664 302.217035 
L 139.7376 302.217035 
L 139.7376 302.813365 
L 143.3088 302.813365 
L 143.3088 295.657412 
L 146.88 295.657412 
L 146.88 294.464753 
L 150.4512 294.464753 
L 150.4512 290.886776 
L 154.0224 290.886776 
L 154.0224 289.097788 
L 157.5936 289.097788 
L 157.5936 290.290447 
L 161.1648 290.290447 
L 161.1648 281.941835 
L 164.736 281.941835 
L 164.736 276.574871 
L 168.3072 276.574871 
L 168.3072 264.051953 
L 171.8784 264.051953 
L 171.8784 259.281318 
L 175.4496 259.281318 
L 175.4496 244.969412 
L 179.0208 244.969412 
L 179.0208 223.501553 
L 182.592 223.501553 
L 182.592 215.749271 
L 186.1632 215.749271 
L 186.1632 225.290541 
L 189.7344 225.290541 
L 189.7344 203.822682 
L 193.3056 203.822682 
L 193.3056 176.987859 
L 196.8768 176.987859 
L 196.8768 162.079624 
L 200.448 162.079624 
L 200.448 138.226447 
L 204.0192 138.226447 
L 204.0192 150.749365 
L 207.5904 150.749365 
L 207.5904 132.859482 
L 211.1616 132.859482 
L 211.1616 119.143906 
L 214.7328 119.143906 
L 214.7328 100.657694 
L 218.304 100.657694 
L 218.304 94.6944 
L 221.8752 94.6944 
L 221.8752 89.923765 
L 225.4464 89.923765 
L 225.4464 72.630212 
L 229.0176 72.630212 
L 229.0176 70.244894 
L 232.5888 70.244894 
L 232.5888 54.144 
L 236.16 54.144 
L 236.16 82.171482 
L 239.7312 82.171482 
L 239.7312 69.052235 
L 243.3024 69.052235 
L 243.3024 76.208188 
L 246.8736 76.208188 
L 246.8736 101.850353 
L 250.4448 101.850353 
L 250.4448 95.887059 
L 254.016 95.887059 
L 254.016 100.061365 
L 257.5872 100.061365 
L 257.5872 142.400753 
L 261.1584 142.400753 
L 261.1584 113.180612 
L 264.7296 113.180612 
L 264.7296 137.033788 
L 268.3008 137.033788 
L 268.3008 121.529224 
L 271.872 121.529224 
L 271.872 178.776847 
L 275.4432 178.776847 
L 275.4432 196.666729 
L 279.0144 196.666729 
L 279.0144 206.804329 
L 282.5856 206.804329 
L 282.5856 209.189647 
L 286.1568 209.189647 
L 286.1568 222.308894 
L 289.728 222.308894 
L 289.728 233.639153 
L 293.2992 233.639153 
L 293.2992 249.143718 
L 296.8704 249.143718 
L 296.8704 258.088659 
L 300.4416 258.088659 
L 300.4416 256.299671 
L 304.0128 256.299671 
L 304.0128 274.785882 
L 307.584 274.785882 
L 307.584 278.363859 
L 311.1552 278.363859 
L 311.1552 291.483106 
L 314.7264 291.483106 
L 314.7264 294.464753 
L 318.2976 294.464753 
L 318.2976 289.694118 
L 321.8688 289.694118 
L 321.8688 296.253741 
L 325.44 296.253741 
L 325.44 299.235388 
L 329.0112 299.235388 
L 329.0112 296.850071 
L 332.5824 296.850071 
L 332.5824 302.813365 
L 336.1536 302.813365 
L 336.1536 299.235388 
L 339.7248 299.235388 
L 339.7248 302.217035 
L 343.296 302.217035 
L 343.296 305.795012 
L 346.8672 305.795012 
L 346.8672 305.198682 
L 350.4384 305.198682 
L 350.4384 307.584 
L 354.0096 307.584 
L 354.0096 306.987671 
L 357.5808 306.987671 
L 357.5808 306.987671 
L 361.152 306.987671 
L 361.152 307.584 
L 364.7232 307.584 
L 364.7232 306.391341 
L 368.2944 306.391341 
L 368.2944 307.584 
L 371.8656 307.584 
L 371.8656 306.987671 
L 375.4368 306.987671 
L 375.4368 307.584 
L 379.008 307.584 
L 379.008 307.584 
L 382.5792 307.584 
L 382.5792 307.584 
L 386.1504 307.584 
L 386.1504 307.584 
L 389.7216 307.584 
L 389.7216 307.584 
L 393.2928 307.584 
L 393.2928 307.584 
L 396.864 307.584 
L 396.864 307.584 
L 400.4352 307.584 
L 400.4352 307.584 
L 404.0064 307.584 
L 404.0064 307.584 
L 407.5776 307.584 
L 407.5776 307.584 
L 411.1488 307.584 
L 411.1488 307.584 
L 414.72 307.584 
L 414.72 307.584 
L 411.1488 307.584 
L 411.1488 307.584 
L 407.5776 307.584 
L 407.5776 307.584 
L 404.0064 307.584 
L 404.0064 307.584 
L 400.4352 307.584 
L 400.4352 307.584 
L 396.864 307.584 
L 396.864 307.584 
L 393.2928 307.584 
L 393.2928 307.584 
L 389.7216 307.584 
L 389.7216 307.584 
L 386.1504 307.584 
L 386.1504 307.584 
L 382.5792 307.584 
L 382.5792 307.584 
L 379.008 307.584 
L 379.008 307.584 
L 375.4368 307.584 
L 375.4368 307.584 
L 371.8656 307.584 
L 371.8656 307.584 
L 368.2944 307.584 
L 368.2944 307.584 
L 364.7232 307.584 
L 364.7232 307.584 
L 361.152 307.584 
L 361.152 307.584 
L 357.5808 307.584 
L 357.5808 307.584 
L 354.0096 307.584 
L 354.0096 307.584 
L 350.4384 307.584 
L 350.4384 307.584 
L 346.8672 307.584 
L 346.8672 307.584 
L 343.296 307.584 
L 343.296 307.584 
L 339.7248 307.584 
L 339.7248 307.584 
L 336.1536 307.584 
L 336.1536 307.584 
L 332.5824 307.584 
L 332.5824 307.584 
L 329.0112 307.584 
L 329.0112 307.584 
L 325.44 307.584 
L 325.44 307.584 
L 321.8688 307.584 
L 321.8688 307.584 
L 318.2976 307.584 
L 318.2976 307.584 
L 314.7264 307.584 
L 314.7264 307.584 
L 311.1552 307.584 
L 311.1552 307.584 
L 307.584 307.584 
L 307.584 307.584 
L 304.0128 307.584 
L 304.0128 307.584 
L 300.4416 307.584 
L 300.4416 307.584 
L 296.8704 307.584 
L 296.8704 307.584 
L 293.2992 307.584 
L 293.2992 307.584 
L 289.728 307.584 
L 289.728 307.584 
L 286.1568 307.584 
L 286.1568 307.584 
L 282.5856 307.584 
L 282.5856 307.584 
L 279.0144 307.584 
L 279.0144 307.584 
L 275.4432 307.584 
L 275.4432 307.584 
L 271.872 307.584 
L 271.872 307.584 
L 268.3008 307.584 
L 268.3008 307.584 
L 264.7296 307.584 
L 264.7296 307.584 
L 261.1584 307.584 
L 261.1584 307.584 
L 257.5872 307.584 
L 257.5872 307.584 
L 254.016 307.584 
L 254.016 307.584 
L 250.4448 307.584 
L 250.4448 307.584 
L 246.8736 307.584 
L 246.8736 307.584 
L 243.3024 307.584 
L 243.3024 307.584 
L 239.7312 307.584 
L 239.7312 307.584 
L 236.16 307.584 
L 236.16 307.584 
L 232.5888 307.584 
L 232.5888 307.584 
L 229.0176 307.584 
L 229.0176 307.584 
L 225.4464 307.584 
L 225.4464 307.584 
L 221.8752 307.584 
L 221.8752 307.584 
L 218.304 307.584 
L 218.304 307.584 
L 214.7328 307.584 
L 214.7328 307.584 
L 211.1616 307.584 
L 211.1616 307.584 
L 207.5904 307.584 
L 207.5904 307.584 
L 204.0192 307.584 
L 204.0192 307.584 
L 200.448 307.584 
L 200.448 307.584 
L 196.8768 307.584 
L 196.8768 307.584 
L 193.3056 307.584 
L 193.3056 307.584 
L 189.7344 307.584 
L 189.7344 307.584 
L 186.1632 307.584 
L 186.1632 307.584 
L 182.592 307.584 
L 182.592 307.584 
L 179.0208 307.584 
L 179.0208 307.584 
L 175.4496 307.584 
L 175.4496 307.584 
L 171.8784 307.584 
L 171.8784 307.584 
L 168.3072 307.584 
L 168.3072 307.584 
L 164.736 307.584 
L 164.736 307.584 
L 161.1648 307.584 
L 161.1648 307.584 
L 157.5936 307.584 
L 157.5936 307.584 
L 154.0224 307.584 
L 154.0224 307.584 
L 150.4512 307.584 
L 150.4512 307.584 
L 146.88 307.584 
L 146.88 307.584 
L 143.3088 307.584 
L 143.3088 307.584 
L 139.7376 307.584 
L 139.7376 307.584 
L 136.1664 307.584 
L 136.1664 307.584 
L 132.5952 307.584 
L 132.5952 307.584 
L 129.024 307.584 
L 129.024 307.584 
L 125.4528 307.584 
L 125.4528 307.584 
L 121.8816 307.584 
L 121.8816 307.584 
L 118.3104 307.584 
L 118.3104 307.584 
L 114.7392 307.584 
L 114.7392 307.584 
L 111.168 307.584 
L 111.168 307.584 
L 107.5968 307.584 
L 107.5968 307.584 
L 104.0256 307.584 
L 104.0256 307.584 
L 100.4544 307.584 
L 100.4544 307.584 
L 96.8832 307.584 
L 96.8832 307.584 
L 93.312 307.584 
L 93.312 307.584 
L 89.7408 307.584 
L 89.7408 307.584 
L 86.1696 307.584 
L 86.1696 307.584 
L 82.5984 307.584 
L 82.5984 307.584 
L 79.0272 307.584 
L 79.0272 307.584 
L 75.456 307.584 
L 75.456 307.584 
L 71.8848 307.584 
L 71.8848 307.584 
L 68.3136 307.584 
L 68.3136 307.584 
L 64.7424 307.584 
L 64.7424 307.584 
L 61.1712 307.584 
L 61.1712 307.584 
z
" clip-path="url(#p544ffd8c7d)" style="fill: #d3d3d3"/>
   </g>
   <g id="matplotlib.axis_1">
    <g id="xtick_1">
     <g id="line2d_1">
      <defs>
       <path id="m925882bc05" d="M 0 0 
L 0 3.5 
" style="stroke: #000000; stroke-width: 0.8"/>
      </defs>
      <g>
       <use xlink:href="#m925882bc05" x="102.935641" y="307.584" style="stroke: #000000; stroke-width: 0.8"/>
      </g>
     </g>
     <g id="text_1">
      <!-- −0.2 -->
      <g transform="translate(90.794235 322.182437)scale(0.1 -0.1)">
       <defs>
        <path id="DejaVuSans-2212" d="M 678 2272 
L 4684 2272 
L 4684 1741 
L 678 1741 
L 678 2272 
z
" transform="scale(0.015625)"/>
        <path id="DejaVuSans-30" d="M 2034 4250 
Q 1547 4250 1301 3770 
Q 1056 3291 1056 2328 
Q 1056 1369 1301 889 
Q 1547 409 2034 409 
Q 2525 409 2770 889 
Q 3016 1369 3016 2328 
Q 3016 3291 2770 3770 
Q 2525 4250 2034 4250 
z
M 2034 4750 
Q 2819 4750 3233 4129 
Q 3647 3509 3647 2328 
Q 3647 1150 3233 529 
Q 2819 -91 2034 -91 
Q 1250 -91 836 529 
Q 422 1150 422 2328 
Q 422 3509 836 4129 
Q 1250 4750 2034 4750 
z
" transform="scale(0.015625)"/>
        <path id="DejaVuSans-2e" d="M 684 794 
L 1344 794 
L 1344 0 
L 684 0 
L 684 794 
z
" transform="scale(0.015625)"/>
        <path id="DejaVuSans-32" d="M 1228 531 
L 3431 531 
L 3431 0 
L 469 0 
L 469 531 
Q 828 903 1448 1529 
Q 2069 2156 2228 2338 
Q 2531 2678 2651 2914 
Q 2772 3150 2772 3378 
Q 2772 3750 2511 3984 
Q 2250 4219 1831 4219 
Q 1534 4219 1204 4116 
Q 875 4013 500 3803 
L 500 4441 
Q 881 4594 1212 4672 
Q 1544 4750 1819 4750 
Q 2544 4750 2975 4387 
Q 3406 4025 3406 3419 
Q 3406 3131 3298 2873 
Q 3191 2616 2906 2266 
Q 2828 2175 2409 1742 
Q 1991 1309 1228 531 
z
" transform="scale(0.015625)"/>
       </defs>
       <use xlink:href="#DejaVuSans-2212"/>
       <use xlink:href="#DejaVuSans-30" x="83.789062"/>
       <use xlink:href="#DejaVuSans-2e" x="147.412109"/>
       <use xlink:href="#DejaVuSans-32" x="179.199219"/>
      </g>
     </g>
    </g>
    <g id="xtick_2">
     <g id="line2d_2">
      <g>
       <use xlink:href="#m925882bc05" x="169.575732" y="307.584" style="stroke: #000000; stroke-width: 0.8"/>
      </g>
     </g>
     <g id="text_2">
      <!-- −0.1 -->
      <g transform="translate(157.434326 322.182437)scale(0.1 -0.1)">
       <defs>
        <path id="DejaVuSans-31" d="M 794 531 
L 1825 531 
L 1825 4091 
L 703 3866 
L 703 4441 
L 1819 4666 
L 2450 4666 
L 2450 531 
L 3481 531 
L 3481 0 
L 794 0 
L 794 531 
z
" transform="scale(0.015625)"/>
       </defs>
       <use xlink:href="#DejaVuSans-2212"/>
       <use xlink:href="#DejaVuSans-30" x="83.789062"/>
       <use xlink:href="#DejaVuSans-2e" x="147.412109"/>
       <use xlink:href="#DejaVuSans-31" x="179.199219"/>
      </g>
     </g>
    </g>
    <g id="xtick_3">
     <g id="line2d_3">
      <g>
       <use xlink:href="#m925882bc05" x="236.215823" y="307.584" style="stroke: #000000; stroke-width: 0.8"/>
      </g>
     </g>
     <g id="text_3">
      <!-- 0.0 -->
      <g transform="translate(228.264261 322.182437)scale(0.1 -0.1)">
       <use xlink:href="#DejaVuSans-30"/>
       <use xlink:href="#DejaVuSans-2e" x="63.623047"/>
       <use xlink:href="#DejaVuSans-30" x="95.410156"/>
      </g>
     </g>
    </g>
    <g id="xtick_4">
     <g id="line2d_4">
      <g>
       <use xlink:href="#m925882bc05" x="302.855914" y="307.584" style="stroke: #000000; stroke-width: 0.8"/>
      </g>
     </g>
     <g id="text_4">
      <!-- 0.1 -->
      <g transform="translate(294.904352 322.182437)scale(0.1 -0.1)">
       <use xlink:href="#DejaVuSans-30"/>
       <use xlink:href="#DejaVuSans-2e" x="63.623047"/>
       <use xlink:href="#DejaVuSans-31" x="95.410156"/>
      </g>
     </g>
    </g>
    <g id="xtick_5">
     <g id="line2d_5">
      <g>
       <use xlink:href="#m925882bc05" x="369.496005" y="307.584" style="stroke: #000000; stroke-width: 0.8"/>
      </g>
     </g>
     <g id="text_5">
      <!-- 0.2 -->
      <g transform="translate(361.544443 322.182437)scale(0.1 -0.1)">
       <use xlink:href="#DejaVuSans-30"/>
       <use xlink:href="#DejaVuSans-2e" x="63.623047"/>
       <use xlink:href="#DejaVuSans-32" x="95.410156"/>
      </g>
     </g>
    </g>
    <g id="text_6">
     <!-- Correlation coefficient -->
     <g transform="translate(180.863906 335.860562)scale(0.1 -0.1)">
      <defs>
       <path id="DejaVuSans-43" d="M 4122 4306 
L 4122 3641 
Q 3803 3938 3442 4084 
Q 3081 4231 2675 4231 
Q 1875 4231 1450 3742 
Q 1025 3253 1025 2328 
Q 1025 1406 1450 917 
Q 1875 428 2675 428 
Q 3081 428 3442 575 
Q 3803 722 4122 1019 
L 4122 359 
Q 3791 134 3420 21 
Q 3050 -91 2638 -91 
Q 1578 -91 968 557 
Q 359 1206 359 2328 
Q 359 3453 968 4101 
Q 1578 4750 2638 4750 
Q 3056 4750 3426 4639 
Q 3797 4528 4122 4306 
z
" transform="scale(0.015625)"/>
       <path id="DejaVuSans-6f" d="M 1959 3097 
Q 1497 3097 1228 2736 
Q 959 2375 959 1747 
Q 959 1119 1226 758 
Q 1494 397 1959 397 
Q 2419 397 2687 759 
Q 2956 1122 2956 1747 
Q 2956 2369 2687 2733 
Q 2419 3097 1959 3097 
z
M 1959 3584 
Q 2709 3584 3137 3096 
Q 3566 2609 3566 1747 
Q 3566 888 3137 398 
Q 2709 -91 1959 -91 
Q 1206 -91 779 398 
Q 353 888 353 1747 
Q 353 2609 779 3096 
Q 1206 3584 1959 3584 
z
" transform="scale(0.015625)"/>
       <path id="DejaVuSans-72" d="M 2631 2963 
Q 2534 3019 2420 3045 
Q 2306 3072 2169 3072 
Q 1681 3072 1420 2755 
Q 1159 2438 1159 1844 
L 1159 0 
L 581 0 
L 581 3500 
L 1159 3500 
L 1159 2956 
Q 1341 3275 1631 3429 
Q 1922 3584 2338 3584 
Q 2397 3584 2469 3576 
Q 2541 3569 2628 3553 
L 2631 2963 
z
" transform="scale(0.015625)"/>
       <path id="DejaVuSans-65" d="M 3597 1894 
L 3597 1613 
L 953 1613 
Q 991 1019 1311 708 
Q 1631 397 2203 397 
Q 2534 397 2845 478 
Q 3156 559 3463 722 
L 3463 178 
Q 3153 47 2828 -22 
Q 2503 -91 2169 -91 
Q 1331 -91 842 396 
Q 353 884 353 1716 
Q 353 2575 817 3079 
Q 1281 3584 2069 3584 
Q 2775 3584 3186 3129 
Q 3597 2675 3597 1894 
z
M 3022 2063 
Q 3016 2534 2758 2815 
Q 2500 3097 2075 3097 
Q 1594 3097 1305 2825 
Q 1016 2553 972 2059 
L 3022 2063 
z
" transform="scale(0.015625)"/>
       <path id="DejaVuSans-6c" d="M 603 4863 
L 1178 4863 
L 1178 0 
L 603 0 
L 603 4863 
z
" transform="scale(0.015625)"/>
       <path id="DejaVuSans-61" d="M 2194 1759 
Q 1497 1759 1228 1600 
Q 959 1441 959 1056 
Q 959 750 1161 570 
Q 1363 391 1709 391 
Q 2188 391 2477 730 
Q 2766 1069 2766 1631 
L 2766 1759 
L 2194 1759 
z
M 3341 1997 
L 3341 0 
L 2766 0 
L 2766 531 
Q 2569 213 2275 61 
Q 1981 -91 1556 -91 
Q 1019 -91 701 211 
Q 384 513 384 1019 
Q 384 1609 779 1909 
Q 1175 2209 1959 2209 
L 2766 2209 
L 2766 2266 
Q 2766 2663 2505 2880 
Q 2244 3097 1772 3097 
Q 1472 3097 1187 3025 
Q 903 2953 641 2809 
L 641 3341 
Q 956 3463 1253 3523 
Q 1550 3584 1831 3584 
Q 2591 3584 2966 3190 
Q 3341 2797 3341 1997 
z
" transform="scale(0.015625)"/>
       <path id="DejaVuSans-74" d="M 1172 4494 
L 1172 3500 
L 2356 3500 
L 2356 3053 
L 1172 3053 
L 1172 1153 
Q 1172 725 1289 603 
Q 1406 481 1766 481 
L 2356 481 
L 2356 0 
L 1766 0 
Q 1100 0 847 248 
Q 594 497 594 1153 
L 594 3053 
L 172 3053 
L 172 3500 
L 594 3500 
L 594 4494 
L 1172 4494 
z
" transform="scale(0.015625)"/>
       <path id="DejaVuSans-69" d="M 603 3500 
L 1178 3500 
L 1178 0 
L 603 0 
L 603 3500 
z
M 603 4863 
L 1178 4863 
L 1178 4134 
L 603 4134 
L 603 4863 
z
" transform="scale(0.015625)"/>
       <path id="DejaVuSans-6e" d="M 3513 2113 
L 3513 0 
L 2938 0 
L 2938 2094 
Q 2938 2591 2744 2837 
Q 2550 3084 2163 3084 
Q 1697 3084 1428 2787 
Q 1159 2491 1159 1978 
L 1159 0 
L 581 0 
L 581 3500 
L 1159 3500 
L 1159 2956 
Q 1366 3272 1645 3428 
Q 1925 3584 2291 3584 
Q 2894 3584 3203 3211 
Q 3513 2838 3513 2113 
z
" transform="scale(0.015625)"/>
       <path id="DejaVuSans-20" transform="scale(0.015625)"/>
       <path id="DejaVuSans-63" d="M 3122 3366 
L 3122 2828 
Q 2878 2963 2633 3030 
Q 2388 3097 2138 3097 
Q 1578 3097 1268 2742 
Q 959 2388 959 1747 
Q 959 1106 1268 751 
Q 1578 397 2138 397 
Q 2388 397 2633 464 
Q 2878 531 3122 666 
L 3122 134 
Q 2881 22 2623 -34 
Q 2366 -91 2075 -91 
Q 1284 -91 818 406 
Q 353 903 353 1747 
Q 353 2603 823 3093 
Q 1294 3584 2113 3584 
Q 2378 3584 2631 3529 
Q 2884 3475 3122 3366 
z
" transform="scale(0.015625)"/>
       <path id="DejaVuSans-66" d="M 2375 4863 
L 2375 4384 
L 1825 4384 
Q 1516 4384 1395 4259 
Q 1275 4134 1275 3809 
L 1275 3500 
L 2222 3500 
L 2222 3053 
L 1275 3053 
L 1275 0 
L 697 0 
L 697 3053 
L 147 3053 
L 147 3500 
L 697 3500 
L 697 3744 
Q 697 4328 969 4595 
Q 1241 4863 1831 4863 
L 2375 4863 
z
" transform="scale(0.015625)"/>
      </defs>
      <use xlink:href="#DejaVuSans-43"/>
      <use xlink:href="#DejaVuSans-6f" x="69.824219"/>
      <use xlink:href="#DejaVuSans-72" x="131.005859"/>
      <use xlink:href="#DejaVuSans-72" x="170.369141"/>
      <use xlink:href="#DejaVuSans-65" x="209.232422"/>
      <use xlink:href="#DejaVuSans-6c" x="270.755859"/>
      <use xlink:href="#DejaVuSans-61" x="298.539062"/>
      <use xlink:href="#DejaVuSans-74" x="359.818359"/>
      <use xlink:href="#DejaVuSans-69" x="399.027344"/>
      <use xlink:href="#DejaVuSans-6f" x="426.810547"/>
      <use xlink:href="#DejaVuSans-6e" x="487.992188"/>
      <use xlink:href="#DejaVuSans-20" x="551.371094"/>
      <use xlink:href="#DejaVuSans-63" x="583.158203"/>
      <use xlink:href="#DejaVuSans-6f" x="638.138672"/>
      <use xlink:href="#DejaVuSans-65" x="699.320312"/>
      <use xlink:href="#DejaVuSans-66" x="760.84375"/>
      <use xlink:href="#DejaVuSans-66" x="796.048828"/>
      <use xlink:href="#DejaVuSans-69" x="831.253906"/>
      <use xlink:href="#DejaVuSans-63" x="859.037109"/>
      <use xlink:href="#DejaVuSans-69" x="914.017578"/>
      <use xlink:href="#DejaVuSans-65" x="941.800781"/>
      <use xlink:href="#DejaVuSans-6e" x="1003.324219"/>
      <use xlink:href="#DejaVuSans-74" x="1066.703125"/>
     </g>
    </g>
   </g>
   <g id="matplotlib.axis_2"/>
   <g id="line2d_6">
    <path d="M 57.6 307.583113 
L 95.28603 307.484596 
L 106.053467 307.27197 
L 113.231759 306.947998 
L 118.615477 306.52745 
L 123.999196 305.868258 
L 127.588342 305.243315 
L 131.177487 304.422834 
L 134.766633 303.357654 
L 138.355779 301.99034 
L 141.944925 300.255074 
L 145.53407 298.077998 
L 147.328643 296.798714 
L 149.123216 295.378129 
L 150.917789 293.80527 
L 152.712362 292.068958 
L 154.506935 290.157907 
L 156.301508 288.060826 
L 158.09608 285.766542 
L 159.890653 283.264133 
L 161.685226 280.543073 
L 163.479799 277.593392 
L 165.274372 274.405841 
L 167.068945 270.972069 
L 168.863518 267.284811 
L 172.452663 259.127324 
L 176.041809 249.904136 
L 179.630955 239.615429 
L 183.220101 228.296386 
L 186.809246 216.021877 
L 190.398392 202.909798 
L 195.782111 182.038746 
L 208.344121 131.929959 
L 211.933266 118.584029 
L 215.522412 106.267846 
L 217.316985 100.597483 
L 219.111558 95.304131 
L 220.906131 90.424471 
L 222.700704 85.992909 
L 224.495276 82.04117 
L 226.289849 78.597922 
L 228.084422 75.688428 
L 229.878995 73.334238 
L 231.673568 71.552925 
L 233.468141 70.357864 
L 235.262714 69.758066 
L 237.057286 69.758066 
L 238.851859 70.357864 
L 240.646432 71.552925 
L 242.441005 73.334238 
L 244.235578 75.688428 
L 246.030151 78.597922 
L 247.824724 82.04117 
L 249.619296 85.992909 
L 251.413869 90.424471 
L 253.208442 95.304131 
L 255.003015 100.597483 
L 258.592161 112.276681 
L 262.181307 125.14895 
L 265.770452 138.885455 
L 272.948744 167.639013 
L 278.332462 189.122627 
L 281.921608 202.909798 
L 285.510754 216.021877 
L 289.099899 228.296386 
L 292.689045 239.615429 
L 296.278191 249.904136 
L 299.867337 259.127324 
L 303.456482 267.284811 
L 307.045628 274.405841 
L 308.840201 277.593392 
L 310.634774 280.543073 
L 312.429347 283.264133 
L 314.22392 285.766542 
L 316.018492 288.060826 
L 317.813065 290.157907 
L 319.607638 292.068958 
L 321.402211 293.80527 
L 323.196784 295.378129 
L 326.78593 298.077998 
L 330.375075 300.255074 
L 333.964221 301.99034 
L 337.553367 303.357654 
L 341.142513 304.422834 
L 344.731658 305.243315 
L 348.320804 305.868258 
L 353.704523 306.52745 
L 359.088241 306.947998 
L 366.266533 307.27197 
L 377.03397 307.484596 
L 396.774271 307.57436 
L 414.72 307.583113 
L 414.72 307.583113 
" clip-path="url(#p544ffd8c7d)" style="fill: none; stroke: #000000; stroke-width: 1.5; stroke-linecap: square"/>
   </g>
   <g id="LineCollection_1">
    <path d="M 166.165766 307.584 
L 166.165766 272.731486 
" clip-path="url(#p544ffd8c7d)" style="fill: none; stroke: #000000; stroke-width: 1.5"/>
    <path d="M 306.154234 307.584 
L 306.154234 272.731486 
" clip-path="url(#p544ffd8c7d)" style="fill: none; stroke: #000000; stroke-width: 1.5"/>
   </g>
   <g id="line2d_7">
    <path d="M 251.163788 307.584 
L 251.163788 41.472 
" clip-path="url(#p544ffd8c7d)" style="fill: none; stroke-dasharray: 1.5,2.475; stroke-dashoffset: 0; stroke: #000000; stroke-width: 1.5"/>
   </g>
   <g id="patch_4">
    <path d="M 57.6 307.584 
L 57.6 41.472 
" style="fill: none; stroke: #000000; stroke-width: 0.8; stroke-linejoin: miter; stroke-linecap: square"/>
   </g>
   <g id="patch_5">
    <path d="M 414.72 307.584 
L 414.72 41.472 
" style="fill: none; stroke: #000000; stroke-width: 0.8; stroke-linejoin: miter; stroke-linecap: square"/>
   </g>
   <g id="patch_6">
    <path d="M 57.6 307.584 
L 414.72 307.584 
" style="fill: none; stroke: #000000; stroke-width: 0.8; stroke-linejoin: miter; stroke-linecap: square"/>
   </g>
   <g id="patch_7">
    <path d="M 57.6 41.472 
L 414.72 41.472 
" style="fill: none; stroke: #000000; stroke-width: 0.8; stroke-linejoin: miter; stroke-linecap: square"/>
   </g>
   <g id="text_7">
    <!-- 0.02 -->
    <g transform="translate(251.163788 278.822778)scale(0.1 -0.1)">
     <use xlink:href="#DejaVuSans-30"/>
     <use xlink:href="#DejaVuSans-2e" x="63.623047"/>
     <use xlink:href="#DejaVuSans-30" x="95.410156"/>
     <use xlink:href="#DejaVuSans-32" x="159.033203"/>
    </g>
   </g>
  </g>
 </g>
 <defs>
  <clipPath id="p544ffd8c7d">
   <rect x="57.6" y="41.472" width="357.12" height="266.112"/>
  </clipPath>
 </defs>
</svg>
